<mxfile host="app.diagrams.net" agent="Mozilla/5.0 (Windows NT 10.0; Win64; x64) AppleWebKit/537.36 (KHTML, like Gecko) Chrome/139.0.0.0 Safari/537.36" version="28.2.3">
  <diagram name="Trang-1" id="I2jKIo7JhMqMSRw0TF2O">
    <mxGraphModel dx="1246" dy="866" grid="1" gridSize="10" guides="1" tooltips="1" connect="1" arrows="1" fold="1" page="1" pageScale="1" pageWidth="827" pageHeight="1169" math="0" shadow="0">
      <root>
        <mxCell id="0" />
        <mxCell id="1" parent="0" />
        <mxCell id="ZPA7pkIVO31e75YNe-cU-1" value="&lt;font style=&quot;vertical-align: inherit;&quot; dir=&quot;auto&quot;&gt;&lt;font style=&quot;vertical-align: inherit;&quot; dir=&quot;auto&quot;&gt;SƠ ĐỒ CHU TRÌNH XỬ LÝ&lt;/font&gt;&lt;/font&gt;" style="text;html=1;align=center;verticalAlign=middle;whiteSpace=wrap;rounded=0;" parent="1" vertex="1">
          <mxGeometry x="30" y="40" width="250" height="140" as="geometry" />
        </mxCell>
        <mxCell id="ZPA7pkIVO31e75YNe-cU-2" value="bắt đầu" style="ellipse;whiteSpace=wrap;html=1;" parent="1" vertex="1">
          <mxGeometry x="294" y="100" width="156" height="100" as="geometry" />
        </mxCell>
        <mxCell id="ZPA7pkIVO31e75YNe-cU-12" value="" style="edgeStyle=none;curved=1;rounded=0;orthogonalLoop=1;jettySize=auto;html=1;fontSize=12;startSize=8;endSize=8;" parent="1" target="ZPA7pkIVO31e75YNe-cU-8" edge="1">
          <mxGeometry relative="1" as="geometry">
            <mxPoint x="372" y="460" as="sourcePoint" />
          </mxGeometry>
        </mxCell>
        <mxCell id="cQ8rkJpn7gKKmTNuYfyE-3" value="có" style="edgeStyle=orthogonalEdgeStyle;rounded=0;orthogonalLoop=1;jettySize=auto;html=1;exitX=0.5;exitY=1;exitDx=0;exitDy=0;entryX=0.5;entryY=0;entryDx=0;entryDy=0;" edge="1" parent="1" source="ZPA7pkIVO31e75YNe-cU-8" target="bTfIg7oqoc3BxcJuaqu4-7">
          <mxGeometry relative="1" as="geometry" />
        </mxCell>
        <mxCell id="ZPA7pkIVO31e75YNe-cU-8" value="có chuyến bay phù hợp" style="rhombus;whiteSpace=wrap;html=1;" parent="1" vertex="1">
          <mxGeometry x="332" y="510" width="80" height="80" as="geometry" />
        </mxCell>
        <mxCell id="ZPA7pkIVO31e75YNe-cU-10" value="" style="endArrow=classic;html=1;rounded=0;fontSize=12;startSize=8;endSize=8;curved=1;exitX=0.5;exitY=1;exitDx=0;exitDy=0;entryX=0.5;entryY=0;entryDx=0;entryDy=0;" parent="1" source="ZPA7pkIVO31e75YNe-cU-2" edge="1">
          <mxGeometry width="50" height="50" relative="1" as="geometry">
            <mxPoint x="270" y="410" as="sourcePoint" />
            <mxPoint x="372" y="250" as="targetPoint" />
          </mxGeometry>
        </mxCell>
        <mxCell id="bTfIg7oqoc3BxcJuaqu4-3" value="" style="edgeStyle=none;curved=1;rounded=0;orthogonalLoop=1;jettySize=auto;html=1;fontSize=12;startSize=8;endSize=8;" parent="1" edge="1">
          <mxGeometry relative="1" as="geometry">
            <mxPoint x="372" y="320" as="sourcePoint" />
            <mxPoint x="372" y="390" as="targetPoint" />
          </mxGeometry>
        </mxCell>
        <mxCell id="cQ8rkJpn7gKKmTNuYfyE-7" style="edgeStyle=orthogonalEdgeStyle;rounded=0;orthogonalLoop=1;jettySize=auto;html=1;exitX=0.5;exitY=1;exitDx=0;exitDy=0;" edge="1" parent="1" source="bTfIg7oqoc3BxcJuaqu4-7" target="cQ8rkJpn7gKKmTNuYfyE-6">
          <mxGeometry relative="1" as="geometry" />
        </mxCell>
        <mxCell id="bTfIg7oqoc3BxcJuaqu4-7" value="hiển thị chyến bay" style="rounded=0;whiteSpace=wrap;html=1;" parent="1" vertex="1">
          <mxGeometry x="200" y="650" width="120" height="60" as="geometry" />
        </mxCell>
        <mxCell id="bTfIg7oqoc3BxcJuaqu4-13" style="edgeStyle=none;curved=1;rounded=0;orthogonalLoop=1;jettySize=auto;html=1;exitX=1;exitY=0.5;exitDx=0;exitDy=0;entryX=0;entryY=0.5;entryDx=0;entryDy=0;fontSize=12;startSize=8;endSize=8;" parent="1" source="bTfIg7oqoc3BxcJuaqu4-10" edge="1">
          <mxGeometry relative="1" as="geometry">
            <mxPoint x="600" y="680" as="targetPoint" />
          </mxGeometry>
        </mxCell>
        <mxCell id="bTfIg7oqoc3BxcJuaqu4-10" value="TB: không có chuyến bay" style="shape=parallelogram;perimeter=parallelogramPerimeter;whiteSpace=wrap;html=1;fixedSize=1;" parent="1" vertex="1">
          <mxGeometry x="430" y="650" width="120" height="60" as="geometry" />
        </mxCell>
        <mxCell id="bTfIg7oqoc3BxcJuaqu4-21" style="edgeStyle=none;curved=1;rounded=0;orthogonalLoop=1;jettySize=auto;html=1;exitX=0.5;exitY=1;exitDx=0;exitDy=0;entryX=0.5;entryY=0;entryDx=0;entryDy=0;fontSize=12;startSize=8;endSize=8;" parent="1" source="bTfIg7oqoc3BxcJuaqu4-15" target="bTfIg7oqoc3BxcJuaqu4-18" edge="1">
          <mxGeometry relative="1" as="geometry" />
        </mxCell>
        <mxCell id="bTfIg7oqoc3BxcJuaqu4-15" value="kiểm tra và xác nhận thông tin" style="rounded=0;whiteSpace=wrap;html=1;" parent="1" vertex="1">
          <mxGeometry x="200" y="880" width="120" height="60" as="geometry" />
        </mxCell>
        <mxCell id="bTfIg7oqoc3BxcJuaqu4-23" style="edgeStyle=none;curved=1;rounded=0;orthogonalLoop=1;jettySize=auto;html=1;exitX=0.5;exitY=1;exitDx=0;exitDy=0;entryX=0.5;entryY=0;entryDx=0;entryDy=0;fontSize=12;startSize=8;endSize=8;" parent="1" source="bTfIg7oqoc3BxcJuaqu4-18" edge="1">
          <mxGeometry relative="1" as="geometry">
            <mxPoint x="260" y="1060" as="targetPoint" />
          </mxGeometry>
        </mxCell>
        <mxCell id="bTfIg7oqoc3BxcJuaqu4-18" value="nhập thông tin và thanh toán" style="shape=parallelogram;perimeter=parallelogramPerimeter;whiteSpace=wrap;html=1;fixedSize=1;" parent="1" vertex="1">
          <mxGeometry x="200" y="970" width="120" height="50" as="geometry" />
        </mxCell>
        <mxCell id="cQ8rkJpn7gKKmTNuYfyE-1" value="nhập thông tin chuyển bay" style="shape=parallelogram;perimeter=parallelogramPerimeter;whiteSpace=wrap;html=1;fixedSize=1;" vertex="1" parent="1">
          <mxGeometry x="290" y="250" width="160" height="70" as="geometry" />
        </mxCell>
        <mxCell id="cQ8rkJpn7gKKmTNuYfyE-2" value="tìm chuyển bay phù hợp" style="rounded=0;whiteSpace=wrap;html=1;" vertex="1" parent="1">
          <mxGeometry x="300" y="390" width="140" height="70" as="geometry" />
        </mxCell>
        <mxCell id="cQ8rkJpn7gKKmTNuYfyE-4" value="không" style="edgeStyle=orthogonalEdgeStyle;rounded=0;orthogonalLoop=1;jettySize=auto;html=1;exitX=0.5;exitY=1;exitDx=0;exitDy=0;" edge="1" parent="1" source="ZPA7pkIVO31e75YNe-cU-8" target="bTfIg7oqoc3BxcJuaqu4-10">
          <mxGeometry relative="1" as="geometry" />
        </mxCell>
        <mxCell id="cQ8rkJpn7gKKmTNuYfyE-9" style="edgeStyle=orthogonalEdgeStyle;rounded=0;orthogonalLoop=1;jettySize=auto;html=1;exitX=0.5;exitY=1;exitDx=0;exitDy=0;entryX=0.5;entryY=0;entryDx=0;entryDy=0;" edge="1" parent="1" source="cQ8rkJpn7gKKmTNuYfyE-6" target="bTfIg7oqoc3BxcJuaqu4-15">
          <mxGeometry relative="1" as="geometry" />
        </mxCell>
        <mxCell id="cQ8rkJpn7gKKmTNuYfyE-6" value="khách hàng chọn chuyến bay , nhập thông tin cá nhân" style="shape=parallelogram;perimeter=parallelogramPerimeter;whiteSpace=wrap;html=1;fixedSize=1;" vertex="1" parent="1">
          <mxGeometry x="200" y="780" width="120" height="60" as="geometry" />
        </mxCell>
        <mxCell id="cQ8rkJpn7gKKmTNuYfyE-17" value="có" style="edgeStyle=orthogonalEdgeStyle;rounded=0;orthogonalLoop=1;jettySize=auto;html=1;exitX=1;exitY=0.5;exitDx=0;exitDy=0;entryX=0;entryY=0.5;entryDx=0;entryDy=0;" edge="1" parent="1" source="cQ8rkJpn7gKKmTNuYfyE-10" target="cQ8rkJpn7gKKmTNuYfyE-12">
          <mxGeometry relative="1" as="geometry" />
        </mxCell>
        <mxCell id="cQ8rkJpn7gKKmTNuYfyE-22" value="không" style="edgeStyle=orthogonalEdgeStyle;rounded=0;orthogonalLoop=1;jettySize=auto;html=1;exitX=1;exitY=0.5;exitDx=0;exitDy=0;" edge="1" parent="1" source="cQ8rkJpn7gKKmTNuYfyE-10" target="cQ8rkJpn7gKKmTNuYfyE-13">
          <mxGeometry relative="1" as="geometry" />
        </mxCell>
        <mxCell id="cQ8rkJpn7gKKmTNuYfyE-10" value="xử lí thanh toán" style="rounded=0;whiteSpace=wrap;html=1;" vertex="1" parent="1">
          <mxGeometry x="210" y="1060" width="120" height="60" as="geometry" />
        </mxCell>
        <mxCell id="cQ8rkJpn7gKKmTNuYfyE-19" style="edgeStyle=orthogonalEdgeStyle;rounded=0;orthogonalLoop=1;jettySize=auto;html=1;exitX=1;exitY=0.5;exitDx=0;exitDy=0;entryX=0;entryY=0.5;entryDx=0;entryDy=0;" edge="1" parent="1" source="cQ8rkJpn7gKKmTNuYfyE-12" target="cQ8rkJpn7gKKmTNuYfyE-15">
          <mxGeometry relative="1" as="geometry" />
        </mxCell>
        <mxCell id="cQ8rkJpn7gKKmTNuYfyE-12" value="gửi xác&amp;nbsp; nhận vé&amp;nbsp;" style="rounded=0;whiteSpace=wrap;html=1;" vertex="1" parent="1">
          <mxGeometry x="400" y="990" width="120" height="60" as="geometry" />
        </mxCell>
        <mxCell id="cQ8rkJpn7gKKmTNuYfyE-23" style="edgeStyle=orthogonalEdgeStyle;rounded=0;orthogonalLoop=1;jettySize=auto;html=1;exitX=1;exitY=0.5;exitDx=0;exitDy=0;entryX=0;entryY=0.5;entryDx=0;entryDy=0;" edge="1" parent="1" source="cQ8rkJpn7gKKmTNuYfyE-13" target="cQ8rkJpn7gKKmTNuYfyE-14">
          <mxGeometry relative="1" as="geometry" />
        </mxCell>
        <mxCell id="cQ8rkJpn7gKKmTNuYfyE-13" value="thông báo lỗi" style="shape=parallelogram;perimeter=parallelogramPerimeter;whiteSpace=wrap;html=1;fixedSize=1;" vertex="1" parent="1">
          <mxGeometry x="400" y="1100" width="120" height="60" as="geometry" />
        </mxCell>
        <mxCell id="cQ8rkJpn7gKKmTNuYfyE-14" value="kết thúc" style="ellipse;whiteSpace=wrap;html=1;" vertex="1" parent="1">
          <mxGeometry x="580" y="1090" width="90" height="80" as="geometry" />
        </mxCell>
        <mxCell id="cQ8rkJpn7gKKmTNuYfyE-21" style="edgeStyle=orthogonalEdgeStyle;rounded=0;orthogonalLoop=1;jettySize=auto;html=1;exitX=1;exitY=0.5;exitDx=0;exitDy=0;entryX=0;entryY=0.5;entryDx=0;entryDy=0;" edge="1" parent="1" source="cQ8rkJpn7gKKmTNuYfyE-15" target="cQ8rkJpn7gKKmTNuYfyE-16">
          <mxGeometry relative="1" as="geometry" />
        </mxCell>
        <mxCell id="cQ8rkJpn7gKKmTNuYfyE-15" value="hiển thị vé điện tử và in vé" style="shape=parallelogram;perimeter=parallelogramPerimeter;whiteSpace=wrap;html=1;fixedSize=1;" vertex="1" parent="1">
          <mxGeometry x="560" y="990" width="120" height="60" as="geometry" />
        </mxCell>
        <mxCell id="cQ8rkJpn7gKKmTNuYfyE-16" value="kết thúc" style="ellipse;whiteSpace=wrap;html=1;" vertex="1" parent="1">
          <mxGeometry x="710" y="980" width="80" height="80" as="geometry" />
        </mxCell>
      </root>
    </mxGraphModel>
  </diagram>
</mxfile>
